<svg width="57" height="98" viewBox="0 0 57 98" fill="none" xmlns="http://www.w3.org/2000/svg">
<path d="M56.1559 72.4227C45.4746 85.784 32.3519 95.3507 14.8346 97.76C8.66926 98.6094 4.27596 95.628 1.99462 89.4507C-0.617376 82.3813 -0.556043 74.9867 1.56129 67.9734C4.01996 59.8267 7.04797 51.7627 10.744 44.104C14.5413 36.232 19.4386 28.8907 23.8586 21.3187C24.904 19.528 25.9639 17.744 26.5759 15.5427C20.2239 20.424 13.8879 25.216 8.48395 31.1267C6.97195 32.7814 5.5853 34.9827 1.90263 33.5827C2.3933 32.0467 2.49465 30.2973 3.38798 29.184C6.85865 24.8587 10.3733 20.5307 14.2627 16.5893C18.916 11.872 23.8639 7.42936 28.8813 3.09469C32.8999 -0.378647 37.2186 -0.469299 39.9373 3.87604C43.1493 9.0107 45.0293 15.0014 47.2627 20.7094C47.636 21.6614 46.8666 23.06 46.5866 24.4427C39.3079 24.4307 40.2133 17.0094 36.0053 13.7374C27.4426 30.9494 16.08 46.5734 9.98798 64.936C8.08932 70.6574 6.82664 76.5054 7.51598 82.5947C8.39998 90.4014 10.82 92.2307 18.5226 90.8654C30.0799 88.8147 39.4507 82.564 48.332 75.3387C50.3707 73.68 52.6719 72.3467 54.8533 70.864C55.2879 71.3827 55.7213 71.9027 56.1559 72.4227Z" fill="white"/>
</svg>
